<mxfile host="Electron" agent="Mozilla/5.0 (Windows NT 10.0; Win64; x64) AppleWebKit/537.36 (KHTML, like Gecko) draw.io/28.1.2 Chrome/138.0.7204.243 Electron/37.4.0 Safari/537.36" version="28.1.2">
  <diagram name="Page-1" id="G8RqInhTgf4wfk8KNztI">
    <mxGraphModel dx="1429" dy="2225" grid="1" gridSize="10" guides="1" tooltips="1" connect="1" arrows="1" fold="1" page="1" pageScale="1" pageWidth="1920" pageHeight="1200" background="none" math="0" shadow="0" adaptiveColors="none">
      <root>
        <mxCell id="0" />
        <mxCell id="1" parent="0" />
        <mxCell id="ZhZcG9ZO5y46irZmkRjk-1" value="&lt;font style=&quot;font-size: 40px;&quot;&gt;&lt;font style=&quot;font-weight: bold;&quot;&gt;Integration Model &lt;/font&gt;&lt;font style=&quot;&quot;&gt;(How tables are related)&lt;/font&gt;&lt;/font&gt;" style="text;html=1;align=center;verticalAlign=middle;whiteSpace=wrap;rounded=0;" parent="1" vertex="1">
          <mxGeometry x="40" y="50" width="350" height="40" as="geometry" />
        </mxCell>
        <mxCell id="ZhZcG9ZO5y46irZmkRjk-3" value="crm_cust_info" style="swimlane;fontStyle=0;childLayout=stackLayout;horizontal=1;startSize=30;horizontalStack=0;resizeParent=1;resizeParentMax=0;resizeLast=0;collapsible=1;marginBottom=0;whiteSpace=wrap;html=1;fillColor=#1ba1e2;fontColor=#ffffff;strokeColor=#006EAF;fontSize=26;" parent="1" vertex="1">
          <mxGeometry x="400" y="350" width="240" height="110" as="geometry" />
        </mxCell>
        <mxCell id="ZhZcG9ZO5y46irZmkRjk-4" value="cst_id" style="text;strokeColor=none;fillColor=none;align=center;verticalAlign=middle;spacingLeft=4;spacingRight=4;overflow=hidden;points=[[0,0.5],[1,0.5]];portConstraint=eastwest;rotatable=0;whiteSpace=wrap;html=1;fontSize=26;" parent="ZhZcG9ZO5y46irZmkRjk-3" vertex="1">
          <mxGeometry y="30" width="240" height="40" as="geometry" />
        </mxCell>
        <mxCell id="YOqJNSjA2unLePxkmd2X-7" value="cst_key" style="text;strokeColor=none;fillColor=none;align=center;verticalAlign=middle;spacingLeft=4;spacingRight=4;overflow=hidden;points=[[0,0.5],[1,0.5]];portConstraint=eastwest;rotatable=0;whiteSpace=wrap;html=1;fontSize=26;" parent="ZhZcG9ZO5y46irZmkRjk-3" vertex="1">
          <mxGeometry y="70" width="240" height="40" as="geometry" />
        </mxCell>
        <mxCell id="ZhZcG9ZO5y46irZmkRjk-7" value="&lt;font style=&quot;font-size: 20px;&quot;&gt;&lt;b&gt;Customer Information&lt;/b&gt;&lt;/font&gt;" style="text;html=1;align=center;verticalAlign=middle;whiteSpace=wrap;rounded=0;" parent="1" vertex="1">
          <mxGeometry x="400" y="320" width="240" height="30" as="geometry" />
        </mxCell>
        <mxCell id="ZhZcG9ZO5y46irZmkRjk-9" value="crm_prod_info" style="swimlane;fontStyle=0;childLayout=stackLayout;horizontal=1;startSize=30;horizontalStack=0;resizeParent=1;resizeParentMax=0;resizeLast=0;collapsible=1;marginBottom=0;whiteSpace=wrap;html=1;fillColor=#1ba1e2;fontColor=#ffffff;strokeColor=#006EAF;fontSize=26;" parent="1" vertex="1">
          <mxGeometry x="410" y="650" width="240" height="70" as="geometry" />
        </mxCell>
        <mxCell id="ZhZcG9ZO5y46irZmkRjk-10" value="prd_key" style="text;strokeColor=none;fillColor=none;align=center;verticalAlign=middle;spacingLeft=4;spacingRight=4;overflow=hidden;points=[[0,0.5],[1,0.5]];portConstraint=eastwest;rotatable=0;whiteSpace=wrap;html=1;fontSize=26;" parent="ZhZcG9ZO5y46irZmkRjk-9" vertex="1">
          <mxGeometry y="30" width="240" height="40" as="geometry" />
        </mxCell>
        <mxCell id="ZhZcG9ZO5y46irZmkRjk-11" value="&lt;span style=&quot;font-size: 20px;&quot;&gt;&lt;b&gt;Current &amp;amp; Historical Product Information&lt;/b&gt;&lt;/span&gt;" style="text;html=1;align=center;verticalAlign=middle;whiteSpace=wrap;rounded=0;" parent="1" vertex="1">
          <mxGeometry x="410" y="570" width="240" height="80" as="geometry" />
        </mxCell>
        <mxCell id="ZhZcG9ZO5y46irZmkRjk-13" value="crm_sales_details" style="swimlane;fontStyle=0;childLayout=stackLayout;horizontal=1;startSize=30;horizontalStack=0;resizeParent=1;resizeParentMax=0;resizeLast=0;collapsible=1;marginBottom=0;whiteSpace=wrap;html=1;fillColor=#1ba1e2;fontColor=#ffffff;strokeColor=#006EAF;fontSize=26;" parent="1" vertex="1">
          <mxGeometry x="40" y="520" width="270" height="130" as="geometry" />
        </mxCell>
        <mxCell id="ZhZcG9ZO5y46irZmkRjk-14" value="cst_id" style="text;strokeColor=none;fillColor=none;align=center;verticalAlign=middle;spacingLeft=4;spacingRight=4;overflow=hidden;points=[[0,0.5],[1,0.5]];portConstraint=eastwest;rotatable=0;whiteSpace=wrap;html=1;fontSize=26;" parent="ZhZcG9ZO5y46irZmkRjk-13" vertex="1">
          <mxGeometry y="30" width="270" height="50" as="geometry" />
        </mxCell>
        <mxCell id="ZhZcG9ZO5y46irZmkRjk-16" value="prd_key" style="text;strokeColor=none;fillColor=none;align=center;verticalAlign=middle;spacingLeft=4;spacingRight=4;overflow=hidden;points=[[0,0.5],[1,0.5]];portConstraint=eastwest;rotatable=0;whiteSpace=wrap;html=1;fontSize=26;" parent="ZhZcG9ZO5y46irZmkRjk-13" vertex="1">
          <mxGeometry y="80" width="270" height="50" as="geometry" />
        </mxCell>
        <mxCell id="ZhZcG9ZO5y46irZmkRjk-15" value="&lt;span style=&quot;font-size: 20px;&quot;&gt;&lt;b&gt;Transactional records of sales &amp;amp; orders&lt;/b&gt;&lt;/span&gt;" style="text;html=1;align=center;verticalAlign=middle;whiteSpace=wrap;rounded=0;" parent="1" vertex="1">
          <mxGeometry x="40" y="440" width="270" height="80" as="geometry" />
        </mxCell>
        <mxCell id="ZhZcG9ZO5y46irZmkRjk-18" style="edgeStyle=orthogonalEdgeStyle;rounded=0;orthogonalLoop=1;jettySize=auto;html=1;entryX=0;entryY=0.5;entryDx=0;entryDy=0;" parent="1" source="ZhZcG9ZO5y46irZmkRjk-16" target="ZhZcG9ZO5y46irZmkRjk-10" edge="1">
          <mxGeometry relative="1" as="geometry" />
        </mxCell>
        <mxCell id="ZhZcG9ZO5y46irZmkRjk-19" style="edgeStyle=orthogonalEdgeStyle;rounded=0;orthogonalLoop=1;jettySize=auto;html=1;entryX=0;entryY=0.5;entryDx=0;entryDy=0;" parent="1" source="ZhZcG9ZO5y46irZmkRjk-14" target="ZhZcG9ZO5y46irZmkRjk-4" edge="1">
          <mxGeometry relative="1" as="geometry" />
        </mxCell>
        <mxCell id="YOqJNSjA2unLePxkmd2X-1" value="erp_loc_a101" style="swimlane;fontStyle=0;childLayout=stackLayout;horizontal=1;startSize=20;horizontalStack=0;resizeParent=1;resizeParentMax=0;resizeLast=0;collapsible=1;marginBottom=0;whiteSpace=wrap;html=1;fillColor=#e3c800;fontColor=#000000;strokeColor=#B09500;fontSize=26;" parent="1" vertex="1">
          <mxGeometry x="760" y="495" width="240" height="60" as="geometry" />
        </mxCell>
        <mxCell id="YOqJNSjA2unLePxkmd2X-2" value="cid" style="text;strokeColor=none;fillColor=none;align=center;verticalAlign=middle;spacingLeft=4;spacingRight=4;overflow=hidden;points=[[0,0.5],[1,0.5]];portConstraint=eastwest;rotatable=0;whiteSpace=wrap;html=1;fontSize=26;" parent="YOqJNSjA2unLePxkmd2X-1" vertex="1">
          <mxGeometry y="20" width="240" height="40" as="geometry" />
        </mxCell>
        <mxCell id="YOqJNSjA2unLePxkmd2X-3" value="&lt;font style=&quot;font-size: 20px;&quot;&gt;&lt;b&gt;Location of customer (COUNTRY)&lt;/b&gt;&lt;/font&gt;" style="text;html=1;align=center;verticalAlign=middle;whiteSpace=wrap;rounded=0;" parent="1" vertex="1">
          <mxGeometry x="760" y="445" width="240" height="50" as="geometry" />
        </mxCell>
        <mxCell id="YOqJNSjA2unLePxkmd2X-4" value="erp_cust_az12" style="swimlane;fontStyle=0;childLayout=stackLayout;horizontal=1;startSize=30;horizontalStack=0;resizeParent=1;resizeParentMax=0;resizeLast=0;collapsible=1;marginBottom=0;whiteSpace=wrap;html=1;fillColor=#e3c800;fontColor=#000000;strokeColor=#B09500;fontSize=26;" parent="1" vertex="1">
          <mxGeometry x="760" y="330" width="240" height="70" as="geometry" />
        </mxCell>
        <mxCell id="YOqJNSjA2unLePxkmd2X-5" value="cid" style="text;strokeColor=none;fillColor=none;align=center;verticalAlign=middle;spacingLeft=4;spacingRight=4;overflow=hidden;points=[[0,0.5],[1,0.5]];portConstraint=eastwest;rotatable=0;whiteSpace=wrap;html=1;fontSize=26;" parent="YOqJNSjA2unLePxkmd2X-4" vertex="1">
          <mxGeometry y="30" width="240" height="40" as="geometry" />
        </mxCell>
        <mxCell id="YOqJNSjA2unLePxkmd2X-6" value="&lt;span style=&quot;font-size: 20px;&quot;&gt;&lt;b&gt;Extra Customer Info(BIRTHDATE)&lt;/b&gt;&lt;/span&gt;" style="text;html=1;align=center;verticalAlign=middle;whiteSpace=wrap;rounded=0;" parent="1" vertex="1">
          <mxGeometry x="760" y="280" width="240" height="50" as="geometry" />
        </mxCell>
        <mxCell id="YOqJNSjA2unLePxkmd2X-24" value="&lt;span style=&quot;font-size: 20px;&quot;&gt;&lt;b&gt;Product Categories&lt;/b&gt;&lt;/span&gt;" style="text;html=1;align=center;verticalAlign=middle;whiteSpace=wrap;rounded=0;" parent="1" vertex="1">
          <mxGeometry x="760" y="590" width="240" height="60" as="geometry" />
        </mxCell>
        <mxCell id="YOqJNSjA2unLePxkmd2X-26" value="erp_px_cat_g1v2" style="swimlane;fontStyle=0;childLayout=stackLayout;horizontal=1;startSize=30;horizontalStack=0;resizeParent=1;resizeParentMax=0;resizeLast=0;collapsible=1;marginBottom=0;whiteSpace=wrap;html=1;fillColor=#e3c800;fontColor=#000000;strokeColor=#B09500;fontSize=26;" parent="1" vertex="1">
          <mxGeometry x="760" y="650" width="240" height="70" as="geometry" />
        </mxCell>
        <mxCell id="YOqJNSjA2unLePxkmd2X-27" value="id" style="text;strokeColor=none;fillColor=none;align=center;verticalAlign=middle;spacingLeft=4;spacingRight=4;overflow=hidden;points=[[0,0.5],[1,0.5]];portConstraint=eastwest;rotatable=0;whiteSpace=wrap;html=1;fontSize=26;" parent="YOqJNSjA2unLePxkmd2X-26" vertex="1">
          <mxGeometry y="30" width="240" height="40" as="geometry" />
        </mxCell>
        <mxCell id="YOqJNSjA2unLePxkmd2X-29" value="" style="rounded=1;whiteSpace=wrap;html=1;fillColor=none;dashed=1;" parent="1" vertex="1">
          <mxGeometry x="10" y="240" width="660" height="560" as="geometry" />
        </mxCell>
        <mxCell id="YOqJNSjA2unLePxkmd2X-30" value="" style="rounded=1;whiteSpace=wrap;html=1;fillColor=none;dashed=1;" parent="1" vertex="1">
          <mxGeometry x="690" y="240" width="350" height="560" as="geometry" />
        </mxCell>
        <mxCell id="YOqJNSjA2unLePxkmd2X-31" value="&lt;font style=&quot;font-size: 35px;&quot;&gt;CRM&lt;/font&gt;" style="rounded=1;whiteSpace=wrap;html=1;fillColor=#1ba1e2;fontColor=#ffffff;strokeColor=#006EAF;" parent="1" vertex="1">
          <mxGeometry x="280" y="210" width="120" height="60" as="geometry" />
        </mxCell>
        <mxCell id="YOqJNSjA2unLePxkmd2X-32" value="&lt;font style=&quot;font-size: 35px;&quot;&gt;ERP&lt;/font&gt;" style="rounded=1;whiteSpace=wrap;html=1;fillColor=#e3c800;fontColor=#000000;strokeColor=#B09500;" parent="1" vertex="1">
          <mxGeometry x="810" y="210" width="120" height="60" as="geometry" />
        </mxCell>
        <mxCell id="YOqJNSjA2unLePxkmd2X-33" style="edgeStyle=orthogonalEdgeStyle;rounded=0;orthogonalLoop=1;jettySize=auto;html=1;entryX=1;entryY=0.5;entryDx=0;entryDy=0;" parent="1" source="YOqJNSjA2unLePxkmd2X-2" target="YOqJNSjA2unLePxkmd2X-7" edge="1">
          <mxGeometry relative="1" as="geometry" />
        </mxCell>
        <mxCell id="YOqJNSjA2unLePxkmd2X-34" style="edgeStyle=orthogonalEdgeStyle;rounded=0;orthogonalLoop=1;jettySize=auto;html=1;entryX=1;entryY=0.5;entryDx=0;entryDy=0;" parent="1" source="YOqJNSjA2unLePxkmd2X-5" target="YOqJNSjA2unLePxkmd2X-7" edge="1">
          <mxGeometry relative="1" as="geometry" />
        </mxCell>
        <mxCell id="YOqJNSjA2unLePxkmd2X-35" style="edgeStyle=orthogonalEdgeStyle;rounded=0;orthogonalLoop=1;jettySize=auto;html=1;entryX=1;entryY=0.5;entryDx=0;entryDy=0;" parent="1" source="YOqJNSjA2unLePxkmd2X-27" target="ZhZcG9ZO5y46irZmkRjk-10" edge="1">
          <mxGeometry relative="1" as="geometry" />
        </mxCell>
        <mxCell id="12tkZnqqpEEBTFehru7Y-1" value="&lt;font style=&quot;font-size: 20px;&quot;&gt;&lt;b&gt;PRODUCT&lt;/b&gt;&lt;/font&gt;" style="text;html=1;strokeColor=#A50040;fillColor=#d80073;align=center;verticalAlign=middle;whiteSpace=wrap;overflow=hidden;fontColor=#ffffff;" vertex="1" parent="1">
          <mxGeometry x="410" y="720" width="240" height="30" as="geometry" />
        </mxCell>
        <mxCell id="12tkZnqqpEEBTFehru7Y-2" value="&lt;span style=&quot;font-size: 20px;&quot;&gt;&lt;b&gt;CUSTOMER&lt;/b&gt;&lt;/span&gt;" style="text;html=1;strokeColor=#005700;fillColor=#008a00;align=center;verticalAlign=middle;whiteSpace=wrap;overflow=hidden;fontColor=#ffffff;" vertex="1" parent="1">
          <mxGeometry x="400" y="460" width="240" height="30" as="geometry" />
        </mxCell>
        <mxCell id="12tkZnqqpEEBTFehru7Y-3" value="&lt;font style=&quot;font-size: 20px;&quot;&gt;&lt;b&gt;PRODUCT&lt;/b&gt;&lt;/font&gt;" style="text;html=1;strokeColor=#A50040;fillColor=#d80073;align=center;verticalAlign=middle;whiteSpace=wrap;overflow=hidden;fontColor=#ffffff;" vertex="1" parent="1">
          <mxGeometry x="760" y="720" width="240" height="30" as="geometry" />
        </mxCell>
        <mxCell id="12tkZnqqpEEBTFehru7Y-4" value="&lt;span style=&quot;font-size: 20px;&quot;&gt;&lt;b&gt;CUSTOMER&lt;/b&gt;&lt;/span&gt;" style="text;html=1;strokeColor=#005700;fillColor=#008a00;align=center;verticalAlign=middle;whiteSpace=wrap;overflow=hidden;fontColor=#ffffff;" vertex="1" parent="1">
          <mxGeometry x="760" y="400" width="240" height="30" as="geometry" />
        </mxCell>
        <mxCell id="12tkZnqqpEEBTFehru7Y-5" value="&lt;span style=&quot;font-size: 20px;&quot;&gt;&lt;b&gt;CUSTOMER&lt;/b&gt;&lt;/span&gt;" style="text;html=1;strokeColor=#005700;fillColor=#008a00;align=center;verticalAlign=middle;whiteSpace=wrap;overflow=hidden;fontColor=#ffffff;" vertex="1" parent="1">
          <mxGeometry x="760" y="555" width="240" height="30" as="geometry" />
        </mxCell>
        <mxCell id="12tkZnqqpEEBTFehru7Y-6" value="&lt;font style=&quot;font-size: 20px;&quot;&gt;&lt;b&gt;SALES&lt;/b&gt;&lt;/font&gt;" style="text;html=1;strokeColor=#432D57;fillColor=#76608a;align=center;verticalAlign=middle;whiteSpace=wrap;overflow=hidden;fontColor=#ffffff;" vertex="1" parent="1">
          <mxGeometry x="40" y="650" width="270" height="30" as="geometry" />
        </mxCell>
      </root>
    </mxGraphModel>
  </diagram>
</mxfile>
